<?xml version="1.0" encoding="utf-8"?>
<!-- Generator: Adobe Illustrator 26.2.1, SVG Export Plug-In . SVG Version: 6.00 Build 0)  -->
<svg version="1.1" id="Capa_1" xmlns="http://www.w3.org/2000/svg" xmlns:xlink="http://www.w3.org/1999/xlink" x="0px" y="0px"
	 viewBox="0 0 530.5 100.6" style="enable-background:new 0 0 530.5 100.6;" xml:space="preserve">
<style type="text/css">
	.st0{fill:#FFFFFF;}
	.st1{fill:#FF4C00;}
</style>
<g>
	<path class="st0" d="M39.2,88.1H0.8l41.1-75.9H70l1,9.4l11.2-9.4h34.1c3.4-0.7,6.9-1.1,10.4-1.1c5.9,0,11.2,1.1,15.6,3.3l1.2-2.2
		h64.1c3.4-0.7,6.9-1.1,10.4-1.1c12.2,0,19.5,4.6,23.9,9.6c0.5-0.4,1.1-0.7,1.6-1c9.1-5.7,18.5-8.6,28.1-8.6
		c7.2,0,13.4,1.7,18.5,5.2c0.1,0.1,0.3,0.2,0.4,0.3l2.4-4.4H363l1.4,4.8l2.6-4.8h129.3l-0.1,0.1h9.4c13,0,18.8,7.2,21.2,11.5
		c2.4,4.4,5.4,13.6-1.3,25.8c-2.8,5.1-6.7,9.6-11.5,13.2c-0.5,0.4-1.1,0.8-1.7,1.2l1,24.1h-37.9l-0.4-6.5l-3.5,6.5h-127l-1.4-4.7
		l-2.6,4.7h-82.2c-3.7,0.9-7.4,1.3-11,1.3c-12,0-19.3-4.6-23.5-9.6c-0.5,0.4-1.1,0.7-1.6,1.1c-9.1,5.7-18.6,8.6-28.3,8.6
		c-14.8,0-22.4-6.9-26.3-13.3l-6.5,12h-42.5l0.9-1.6c-5.5,1.9-11.1,2.9-16.8,2.9c-9.8,0-16.4-3.1-20.8-6.8l-3,5.5H50.2H39.2z"/>
	<path d="M523,26.3c-2.3-4.1-7.1-9.1-17.3-9.1h-17.3l0.1-0.1h-42.2h-20.1h-24.6h-20h-12l-6.4,11.8l-3.5-11.8h-2.1h-15.7h-46.6
		l-3.7,6.9c-1.2-1.3-2.5-2.5-4.1-3.6c-4.3-3-9.7-4.4-16.1-4.4c-8.8,0-17.4,2.7-25.8,7.9c-1.7,1.1-3.3,2.2-4.8,3.4
		c-3.2-5.4-9.7-11.3-22.9-11.3c-3.3,0-6.7,0.4-10,1.1h-62l-2.1,3.9c-3.8-2.9-9.3-5-17.2-5c-5.2,0-10.3,0.9-15.3,2.7l0.8-1.6H83.7
		L67.4,30.8L66,17.1H44.4L8.7,83.3h32.2h7.9h27.7l4.6-8.5c3.5,5,9.9,9.8,21.7,9.8c8.9,0,17.7-2.7,26.1-7.9c0.7-0.4,1.3-0.9,1.9-1.3
		l-4.3,7.9h32.1l9.8-18c0.5,2.6,1.3,4.9,2.3,6.8c2.9,5.7,9.4,12.6,23.4,12.6c8.9,0,17.7-2.7,26.1-7.9c1.7-1.1,3.3-2.2,4.9-3.4
		c3.2,5.4,9.6,11.3,22.6,11.3c4.1,0,8.2-0.6,12.3-1.8l-0.3,0.5h46.6h17.4h14.6l6.4-11.7l3.5,11.7h14.1h3.7h24.6h3.8h42.7h17.4h14.7
		l9.7-17.9l1,17.9h28.9l-0.9-22c1.3-0.7,2.5-1.5,3.8-2.4c4.3-3.2,7.7-7.1,10.2-11.6C526.9,37.6,525.3,30.5,523,26.3z"/>
	<g>
		<g>
			<polygon class="st0" points="86.8,26.9 60.3,49.2 57.9,26.9 49.6,26.9 24.4,73.5 35.6,73.5 49.1,48.7 51,68.9 72.3,50.9 60,73.5 
				71.3,73.5 96.5,26.9 			"/>
			<path class="st0" d="M142.3,33.2c-2.6-4.9-7.9-7.4-15.7-7.4c-7.3,0-14.5,2.2-21.5,6.6c-7,4.3-12.4,10-16,16.7
				c-3.9,7.1-4.5,13.3-2,18.3c2.6,5,7.8,7.6,15.5,7.6c7.3,0,14.6-2.2,21.6-6.6c7-4.4,12.4-10,16-16.7
				C144.3,44.3,144.9,38.1,142.3,33.2z M123.4,36.6c4.2,0,7,1.1,8.2,3.3c1.2,2.2,0.7,5.2-1.3,9c-2.3,4.3-5.8,7.8-10.3,10.6
				c-4.5,2.8-9.2,4.2-13.9,4.2c-4.2,0-7-1.1-8.1-3.3c-1.2-2.2-0.7-5.2,1.4-9.1c2.3-4.3,5.8-7.8,10.3-10.6
				C114,38.1,118.7,36.6,123.4,36.6z"/>
			<polygon class="st0" points="195,26.9 151.2,26.9 145.4,37.6 161.7,37.6 142.2,73.5 153.4,73.5 172.9,37.6 189.2,37.6 			"/>
			<path class="st0" d="M233.6,33.2c-2.6-4.9-7.9-7.4-15.7-7.4c-7.3,0-14.5,2.2-21.5,6.6c-7,4.3-12.4,10-16,16.7
				c-3.9,7.1-4.5,13.3-2,18.3c2.6,5,7.8,7.6,15.5,7.6c7.3,0,14.6-2.2,21.6-6.6c7-4.4,12.4-10,16-16.7
				C235.5,44.3,236.2,38.1,233.6,33.2z M214.7,36.6c4.2,0,7,1.1,8.2,3.3c1.2,2.2,0.7,5.2-1.3,9c-2.3,4.3-5.8,7.8-10.3,10.6
				c-4.5,2.8-9.2,4.2-13.9,4.2c-4.2,0-7-1.1-8.1-3.3c-1.2-2.2-0.7-5.2,1.4-9.1c2.3-4.3,5.8-7.8,10.3-10.6
				C205.3,38.1,210,36.6,214.7,36.6z"/>
		</g>
		<g>
			<path class="st1" d="M277.8,61.2l-5.8-7.3l-1.7,1.4c-3.5,2.9-6.9,5.1-10.1,6.5c-3.1,1.3-6.3,2-9.4,2c-4.1,0-6.6-1.1-7.8-3.3
				c-1.2-2.3-0.8-5.2,1.3-9c2.3-4.2,5.7-7.8,10.2-10.6c4.5-2.8,9.1-4.2,13.6-4.2c2.8,0,4.9,0.5,6.5,1.6c1.3,0.9,2.1,2.1,2.3,3.8
				l0.4,3.3l11-5.9l-0.2-1.7c-0.5-3.9-2.3-6.9-5.4-9c-2.9-2-6.7-2.9-11.3-2.9c-7.2,0-14.3,2.2-21.3,6.6c-7,4.4-12.3,10-16,16.7
				c-3.9,7.2-4.5,13.3-2,18.2c2.6,5,7.7,7.5,15.3,7.5c4.8,0,9.7-1.1,14.6-3.1c4.8-2.1,9.5-5.1,13.9-9L277.8,61.2z"/>
			<polygon class="st1" points="292.4,62.6 296.9,54.3 316.7,54.3 322.6,43.4 302.8,43.4 305.8,37.9 336,37.9 341.9,26.9 
				300.5,26.9 275.3,73.5 318.4,73.5 324.2,62.6 			"/>
			<polygon class="st1" points="374.8,26.9 360.8,52.7 353.2,26.9 347,26.9 321.8,73.5 333,73.5 346.9,47.8 354.6,73.5 360.7,73.5 
				385.9,26.9 			"/>
			<polygon class="st1" points="424.8,37.6 430.6,26.9 386.8,26.9 381,37.6 397.3,37.6 377.8,73.5 389,73.5 408.5,37.6 			"/>
			<polygon class="st1" points="423.3,62.6 427.8,54.3 447.6,54.3 453.5,43.4 433.7,43.4 436.7,37.9 466.8,37.9 472.8,26.9 
				431.3,26.9 406.1,73.5 449.2,73.5 455.1,62.6 			"/>
			<path class="st1" d="M515.2,31.3c-1.5-2.8-4.8-4.3-9.5-4.3h-27.9l-25.2,46.5h11.3l9.9-18.2h13.4l1.1,18.2h11l-0.8-18.8
				c2.7-0.7,5.4-2.1,8-4c3.2-2.4,5.7-5.2,7.5-8.5C516.4,37.8,516.8,34.1,515.2,31.3z M496.3,44.3h-16.6l3.5-6.4h19.2
				c1.4,0,1.9,0.2,2.1,0.3c0,0.2-0.1,0.7-0.6,1.6c-0.8,1.5-1.8,2.5-3.1,3.3C499.5,43.9,498,44.3,496.3,44.3z"/>
		</g>
	</g>
</g>
</svg>
