<svg id="Layer_1" data-name="Layer 1" xmlns="http://www.w3.org/2000/svg" viewBox="0 0 46.67 46.91"><defs><style>.cls-1{fill:#fff;}</style></defs><title>icono-devolucion</title><path id="ico-devolucion" class="cls-1" d="M42.8,23.47A18.91,18.91,0,0,0,6.05,17.15a1.11,1.11,0,0,1-2.12-.66l0-.08A21.13,21.13,0,0,1,45,23.47M3.87,19a1.11,1.11,0,0,1-.65-.21A1.16,1.16,0,0,1,2.76,18L1.65,8a1.12,1.12,0,0,1,2.23-.25l1,8.8,8.79-2a1.11,1.11,0,0,1,1.32.85,1.1,1.1,0,0,1-.82,1.33h0L4.11,19l-.23,0ZM25.31,44.6a1.11,1.11,0,0,1-.07-2.23,19.57,19.57,0,0,0,3.11-.48A1.11,1.11,0,1,1,28.92,44l-.07,0a20.92,20.92,0,0,1-3.46.54Zm-5.52-.37-.23,0a21,21,0,0,1-3.36-1A1.11,1.11,0,1,1,17,41.12a18,18,0,0,0,3,.9,1.14,1.14,0,0,1,.86,1.32,1.13,1.13,0,0,1-1.09.88Zm14-2.18a1.14,1.14,0,0,1-1-.57A1.12,1.12,0,0,1,33.19,40a17.65,17.65,0,0,0,2.6-1.78,1.13,1.13,0,0,1,1.58.16,1.1,1.1,0,0,1-.14,1.55l0,0a20.65,20.65,0,0,1-2.9,2,1.18,1.18,0,0,1-.56.14Zm-22-1.5a1.12,1.12,0,0,1-.67-.23A22.28,22.28,0,0,1,9,38.44L8.47,38a1.11,1.11,0,0,1,.06-1.56h0a1.09,1.09,0,0,1,1.54,0h0c.14.15.28.3.44.44a16.74,16.74,0,0,0,1.9,1.68,1.12,1.12,0,0,1,.21,1.56,1.1,1.1,0,0,1-.88.44ZM41.2,35.62a1.12,1.12,0,0,1-1.83-1.28h0A20.14,20.14,0,0,0,41,31.62M6.1,33.77a1.09,1.09,0,0,1-1-.61A21.46,21.46,0,0,1,4,30.53,1.11,1.11,0,1,1,6,29.72l0,.06a21.11,21.11,0,0,0,1,2.36,1.11,1.11,0,0,1-.48,1.5h0a1,1,0,0,1-.49.12Z"/></svg>