<svg id="Layer_1" data-name="Layer 1" xmlns="http://www.w3.org/2000/svg" viewBox="0 0 46.67 46.91"><defs><style>.cls-1{fill:#fff;}</style></defs><title>icono-enviograt</title><path id="ico-envio" class="cls-1" d="M37.39,40.92a3,3,0,1,1,3-3A3,3,0,0,1,37.39,40.92Zm0-4.46A1.49,1.49,0,1,0,38.89,38a1.49,1.49,0,0,0-1.5-1.49Zm-21,4.46a3,3,0,1,1,3-3A3,3,0,0,1,16.39,40.92Zm0-4.46A1.49,1.49,0,1,0,17.89,38a1.49,1.49,0,0,0-1.5-1.49ZM11.14,23.82a8.18,8.18,0,1,1,8.25-8.18,8.18,8.18,0,0,1-8.25,8.18ZM11.14,9a6.69,6.69,0,1,0,6.75,6.69A6.69,6.69,0,0,0,11.14,9ZM32.9,33.49H10.4a.74.74,0,1,1,0-1.49H32.9a.74.74,0,0,0,.75-.74h0V16.39a.74.74,0,0,0-.74-.75h-12a.74.74,0,1,1,0-1.49h12a2.24,2.24,0,0,1,2.25,2.23V31.26a2.24,2.24,0,0,1-2.25,2.23Zm10.5,5.95H41.9a.74.74,0,0,1,0-1.49h1.5v-7.1a4.48,4.48,0,0,0-1.76-3.54l-7.7-5.87a.74.74,0,0,1-.14-1h0a.75.75,0,0,1,1.05-.14l7.7,5.87a6,6,0,0,1,2.34,4.72V38a1.5,1.5,0,0,1-1.5,1.49Zm-10.5,0h-12a.74.74,0,1,1,0-1.49h12a.75.75,0,0,1,0,1.49Zm-21,0H10.4a1.5,1.5,0,0,1-1.5-1.49V25.31a.75.75,0,0,1,1.5,0V38h1.5A.74.74,0,0,1,12,39.44H11.9ZM8.15,31.26H2.9V29.77H8.15Zm0,2.23h-3V32h3Zm0,2.23H6.65V34.23h1.5Zm4-16.18a4.28,4.28,0,1,1,1.34-8.34.74.74,0,0,1,.48.94.75.75,0,0,1-.95.48,2.79,2.79,0,1,0,0,5.31.75.75,0,0,1,.95.48.74.74,0,0,1-.48.94A4.35,4.35,0,0,1,12.11,19.54Zm-1-4.64H7.39a.74.74,0,1,1,0-1.49h3.75a.74.74,0,0,1,.09,1.49h-.09Zm0,2.23H7.39a.74.74,0,0,1,0-1.49h3.75a.74.74,0,0,1,.09,1.49h-.09ZM2.52,25.68A.75.75,0,0,1,2,25.47a.74.74,0,0,1,0-1H2L20.36,6.2a.75.75,0,0,1,1.06,0,.74.74,0,0,1,0,1h0L3,25.47A.75.75,0,0,1,2.52,25.68Z"/></svg>