<svg id="Layer_1" data-name="Layer 1" xmlns="http://www.w3.org/2000/svg" viewBox="0 0 46.67 46.91"><defs><style>.cls-1{fill:#fff;}</style></defs><title>icono-envio</title><path id="ico-tiempo" class="cls-1" d="M23.55,46.5a20.77,20.77,0,1,1,20.55-21q0,.11,0,.22A20.68,20.68,0,0,1,23.55,46.5Zm0-39.5A18.74,18.74,0,1,0,42.09,25.94q0-.1,0-.21A18.66,18.66,0,0,0,23.55,7Zm0,3.22a1,1,0,0,1-.71-1.73,1,1,0,0,1,1.71.72,1,1,0,0,1-.29.71,1,1,0,0,1-.71.3Zm0,33.07a1,1,0,0,1-.71-.3,1,1,0,0,1-.29-.72,1,1,0,0,1,2,0,1,1,0,0,1-.29.72,1,1,0,0,1-.71.3ZM39.91,26.75a1,1,0,0,1-.7-.29,1,1,0,0,1-.29-.72,1,1,0,1,1,1.7.72,1,1,0,0,1-.71.29Zm-32.73,0a1,1,0,0,1-.7-.3,1,1,0,1,1,1.41,0,1,1,0,0,1-.71.29ZM35.12,15.06a1,1,0,0,1-.7-.3,1,1,0,0,1,0-1.42h0a1,1,0,0,1,1.41,0,1,1,0,0,1,.29.72,1,1,0,0,1-1,1ZM12,38.43a1,1,0,0,1-.71-.29,1,1,0,0,1,1.41-1.43,1,1,0,0,1,0,1.42h0A1,1,0,0,1,12,38.43Zm23.13,0a1,1,0,0,1-.7-.29,1,1,0,0,1,0-1.42h0a1,1,0,0,1,1.41,1.43,1,1,0,0,1-.71.29ZM12,15.06a1,1,0,0,1-.71-.3A1,1,0,0,1,11,14a1,1,0,0,1,.29-.72,1,1,0,0,1,1.41,0,1,1,0,0,1,0,1.42h0A1,1,0,0,1,12,15.06ZM32.64,35.46a1,1,0,0,1-.69-.28l-9.09-8.72a1,1,0,0,1-.31-.73V15.6a1,1,0,0,1,2,0V25.3l8.78,8.42a1,1,0,0,1,0,1.43A1,1,0,0,1,32.64,35.46Zm-6.08-32a1,1,0,0,1-1-1h-4a1,1,0,0,1-2,0,2,2,0,0,1,2-2h4a2,2,0,0,1,2,2A1,1,0,0,1,26.56,3.45Zm-3,3a1,1,0,0,1-1-1V1.42a1,1,0,0,1,2,0V5.47A1,1,0,0,1,23.55,6.49Zm14.12,4.9a1,1,0,0,1-.71-.3,1,1,0,0,1,0-1.43L38,8.55a1,1,0,0,1,1.41,0h0a1,1,0,0,1,0,1.43l-1.09,1.1A1,1,0,0,1,37.67,11.38Z"/></svg>