<svg id="Layer_1" data-name="Layer 1" xmlns="http://www.w3.org/2000/svg" viewBox="0 0 46.67 46.91"><defs><style>.cls-1{fill:#fff;}</style></defs><title>icono-dudas</title><path id="ico-whatsapp" class="cls-1" d="M30.19,33.88c-.79,0-2.1-.19-5.79-1.63s-7-4.4-9.82-8.5l-.09-.14A11.32,11.32,0,0,1,12,17.31a7.09,7.09,0,0,1,2.1-5.18l.1-.1a3.05,3.05,0,0,1,2.24-1l.63,0,.43,0h.27a2.19,2.19,0,0,1,1.94,1.56l.6,1.44c.39.95,1,2.38,1.07,2.57a2,2,0,0,1,.05,1.89l-.08.15a3.58,3.58,0,0,1-.62,1l-.27.32a9.15,9.15,0,0,1-.61.69,15.49,15.49,0,0,0,2.79,3.42,13.28,13.28,0,0,0,3.81,2.39l.41.18,0,0c.48-.56,1.32-1.55,1.6-2A1.75,1.75,0,0,1,30,23.83,2.82,2.82,0,0,1,31,24c.65.23,3.87,1.82,3.9,1.83l.29.14a2.55,2.55,0,0,1,1.2.88c.44.73.19,2.33-.24,3.51-.61,1.7-3.23,3.17-4.62,3.29l-.32.06A4.07,4.07,0,0,1,30.19,33.88ZM16.46,13.07a1,1,0,0,0-.71.35l-.12.12a5,5,0,0,0-1.55,3.75,9.48,9.48,0,0,0,2.05,5.05l.15.22a20.34,20.34,0,0,0,8.87,7.73,18.33,18.33,0,0,0,5,1.49,1.93,1.93,0,0,0,.53-.08,4.33,4.33,0,0,1,.62-.11,4.74,4.74,0,0,0,2.86-1.93,5.37,5.37,0,0,0,.34-1.7l-.25-.12L34,27.71c-.93-.46-3.29-1.6-3.67-1.74l-.1,0c-.57.79-1.76,2.16-1.77,2.17a1.84,1.84,0,0,1-2.43.38l-.32-.14a15.57,15.57,0,0,1-4.36-2.74A17.49,17.49,0,0,1,18,21.56a1.82,1.82,0,0,1,.4-2.38c.14-.15.31-.35.48-.55l.29-.35a2,2,0,0,0,.33-.54l.09-.17c-.14-.22-.46-1-1.2-2.73l-.6-1.44a1.14,1.14,0,0,0-.14-.29h-.14l-.56,0ZM2.24,45.64a1,1,0,0,1-.75-.32,1,1,0,0,1-.2-1.1L5.95,32.93a21.15,21.15,0,1,1,8.93,8.43L2.58,45.58A1.05,1.05,0,0,1,2.24,45.64ZM24.31,3.39A19.06,19.06,0,0,0,8,32.31a1.06,1.06,0,0,1,.07.93l-4,9.64L14.5,39.29a1,1,0,0,1,.93,0A19.06,19.06,0,1,0,24.31,3.38Z"/></svg>